<?xml version="1.0" standalone="no"?>
<!DOCTYPE svg PUBLIC "-//W3C//DTD SVG 1.1//EN" "http://www.w3.org/Graphics/SVG/1.1/DTD/svg11.dtd" >
<svg xmlns="http://www.w3.org/2000/svg">
<metadata>
Created by FontForge 20120731 at Thu Jun 22 17:00:15 2017
 By admin
</metadata>
<defs>
<font id="icon" horiz-adv-x="1024" >
  <font-face 
    font-family="icon"
    font-weight="500"
    font-stretch="normal"
    units-per-em="1024"
    panose-1="2 0 6 3 0 0 0 0 0 0"
    ascent="896"
    descent="-128"
    x-height="792"
    bbox="0 -147 1101 896"
    underline-thickness="0"
    underline-position="0"
    unicode-range="U+0078-E66C"
  />
<missing-glyph 
 />
    <glyph glyph-name=".notdef" 
 />
    <glyph glyph-name=".notdef" 
 />
    <glyph glyph-name=".null" horiz-adv-x="0" 
 />
    <glyph glyph-name="nonmarkingreturn" horiz-adv-x="341" 
 />
    <glyph glyph-name="x" unicode="x" horiz-adv-x="1001" 
d="M281 543q-27 -1 -53 -1h-83q-18 0 -36.5 -6t-32.5 -18.5t-23 -32t-9 -45.5v-76h912v41q0 16 -0.5 30t-0.5 18q0 13 -5 29t-17 29.5t-31.5 22.5t-49.5 9h-133v-97h-438v97zM955 310v-52q0 -23 0.5 -52t0.5 -58t-10.5 -47.5t-26 -30t-33 -16t-31.5 -4.5q-14 -1 -29.5 -0.5
t-29.5 0.5h-32l-45 128h-439l-44 -128h-29h-34q-20 0 -45 1q-25 0 -41 9.5t-25.5 23t-13.5 29.5t-4 30v167h911zM163 247q-12 0 -21 -8.5t-9 -21.5t9 -21.5t21 -8.5q13 0 22 8.5t9 21.5t-9 21.5t-22 8.5zM316 123q-8 -26 -14 -48q-5 -19 -10.5 -37t-7.5 -25t-3 -15t1 -14.5
t9.5 -10.5t21.5 -4h37h67h81h80h64h36q23 0 34 12t2 38q-5 13 -9.5 30.5t-9.5 34.5q-5 19 -11 39h-368zM336 498v228q0 11 2.5 23t10 21.5t20.5 15.5t34 6h188q31 0 51.5 -14.5t20.5 -52.5v-227h-327z" />
    <glyph glyph-name="upload" unicode="&#xe618;" 
d="M896 -79h-768q-21 0 -35.5 15t-14.5 35v251q0 21 14.5 35.5t35.5 14.5t35.5 -14.5t14.5 -35.5v-200h668v200q0 21 14.5 35.5t35.5 14.5t35.5 -14.5t14.5 -35.5v-251q0 -20 -14.5 -35t-35.5 -15zM662 456q-22 0 -37 17v0l-63 70v-304v0q0 -21 -14.5 -35.5t-35.5 -14.5
t-35.5 14.5t-14.5 35.5v0v304l-63 -70v0q-15 -17 -37 -17q-21 0 -35.5 15t-14.5 36q0 19 13 33v0l150 167v0q15 17 37 17t37 -17v0l150 -167v0q13 -14 13 -33q0 -21 -14.5 -36t-35.5 -15z" />
    <glyph glyph-name="search" unicode="&#xe630;" 
d="M950 -12l-270 272q81 96 81 222q0 95 -46.5 175t-127 126.5t-175 46.5t-174.5 -46.5t-126.5 -126.5t-46.5 -174.5t46.5 -174.5t126.5 -126.5t175 -46.5q130 0 228 85l270 -272q8 -8 19.5 -8t19.5 8.5t8 20t-8 19.5zM413 190q-121 0 -207 85.5t-86 207t86 207t207 85.5
t206.5 -85.5t85.5 -207t-85.5 -207t-206.5 -85.5z" />
    <glyph glyph-name="close" unicode="&#xe633;" 
d="M567 383l289 289q9 10 8 25t-12 26t-25.5 12t-24.5 -9l-289 -289l-289 289q-10 10 -24.5 9t-26 -12t-12.5 -26t9 -25l289 -289l-289 -289q-10 -9 -9 -24t12.5 -26t26 -12t24.5 9l289 289l289 -289q10 -10 24.5 -9t25.5 12t12 26t-8 24z" />
    <glyph glyph-name="warning" unicode="&#xe642;" 
d="M512 -147q-91 0 -174 35.5t-142.5 95t-95 142.5t-35.5 174t35.5 174t95 142.5t142.5 95t174 35.5t174 -35.5t142.5 -95t95 -142.5t35.5 -174t-35.5 -174t-95 -142.5t-142.5 -95t-174 -35.5zM557 568h-90v-313h90v313zM557 166h-90v-90h90v90z" />
    <glyph glyph-name="right" unicode="&#xe604;" 
d="M931 634q-15 15 -33 17.5t-29 -8.5l-466 -419l-251 250q-6 6 -21.5 0.5t-30 -20.5t-20.5 -30t1 -22l296 -297q10 -8 27 -7q14 2 25 13l511 460q11 11 8.5 29.5t-17.5 33.5z" />
    <glyph glyph-name="upload1" unicode="&#xe634;" 
d="M796 346q0 1 0.5 3.5t0.5 3.5q0 97 -68 166t-164 69q-68 0 -124 -37t-84 -97q-26 13 -54 13q-44 0 -77 -29t-41 -72q-53 -19 -87 -66t-34 -106q0 -75 52.5 -128.5t126.5 -53.5h205v160h-96l160 167l160 -167h-96v-160h221q67 0 115 49t48 118t-48 117.5t-116 49.5z" />
    <glyph glyph-name="info" unicode="&#xe615;" 
d="M512 839q-93 0 -177 -36t-145 -97t-97 -145t-36 -177t36 -177t97 -145t145 -97t177 -36t177 36t145 97t97 145t36 177t-36 177t-97 145t-145 97t-177 36zM558 156h-92v274h92v-274zM558 521h-92v91h92v-91z" />
    <glyph glyph-name="loading" unicode="&#xe61b;" 
d="M512 833q-121 0 -223.5 -58.5t-163 -159.5t-63.5 -221q3 105 52 193t132.5 139t180.5 51q100 0 184 -52.5t133 -143.5t49 -197q0 -35 24.5 -60t59.5 -25t59.5 25t24.5 60q0 91 -35.5 174.5t-95.5 143.5t-143.5 95.5t-174.5 35.5zM512 -66q120 0 222.5 58.5t163 159.5
t63.5 221q-2 -105 -51.5 -193t-132.5 -139t-181 -51q-99 0 -183.5 53t-133 143.5t-48.5 197.5q0 35 -25 59.5t-60 24.5t-59.5 -24.5t-24.5 -59.5q0 -92 35.5 -175t96 -143.5t143.5 -96t175 -35.5z" />
    <glyph glyph-name="file" unicode="&#xe62a;" 
d="M670 820h-429q-17 0 -29.5 -12.5t-12.5 -30.5v-789q0 -18 12.5 -30.5t29.5 -12.5h577q18 0 30.5 12.5t12.5 30.5v641zM252 767h379v-135q0 -18 12.5 -30.5t29.5 -12.5h135v-591h-556v769zM684 642v89l89 -89h-89z" />
    <glyph glyph-name="success" unicode="&#xe63c;" 
d="M512 -81q-90 0 -172.5 35t-142 94.5t-94.5 141.5t-35 172.5t35 173t94.5 141.5t142 94.5t172.5 35.5t172.5 -35.5t142 -94.5t94.5 -141.5t35 -173t-35 -172.5t-94.5 -141.5t-142 -94.5t-172.5 -35zM717 520q-11 8 -24 6.5t-23 -11.5l-212 -211q-6 -6 -14 -6t-14 6l-80 79
q-9 9 -22.5 11t-24.5 -6q-13 -10 -14.5 -26t10.5 -28l131 -130q6 -6 14 -6t14 6l264 263q12 11 10.5 27.5t-15.5 25.5z" />
    <glyph glyph-name="triangle-up" unicode="&#xe616;" 
d="M256 256h513l-257 321z" />
    <glyph glyph-name="triangle-down" unicode="&#xe613;" 
d="M768 512h-513l257 -321z" />
    <glyph glyph-name="triangle-left" unicode="&#xe614;" 
d="M640 128v513l-321 -257z" />
    <glyph glyph-name="triangle-right" unicode="&#xe60e;" 
d="M384 640v-513l321 257z" />
    <glyph glyph-name="arrow-down" unicode="&#xe605;" 
d="M533 175q7 4 9 5q0 1 0.5 1.5l0.5 0.5l1 0.5l1 0.5l325 337q13 14 13 32v0q0 20 -14 33q-14 14 -33 13.5t-33 -14.5l-292 -303l-289 304q-13 14 -32 14.5t-33 -12.5t-14.5 -32t12.5 -33l321 -340q11 -11 26 -13.5t28 4.5l1 0.5t2 1.5v0z" />
    <glyph glyph-name="arrow-left" unicode="&#xe606;" 
d="M303 363q4 -7 5 -9q1 0 1.5 -0.5l0.5 -0.5l0.5 -1l0.5 -1l337 -325q14 -13 32 -13v0q20 0 33 14q14 14 13.5 33t-14.5 33l-303 292l304 289q14 13 14.5 32t-12.5 33t-32 14.5t-33 -12.5l-340 -321q-11 -11 -13.5 -26t4.5 -28l0.5 -1t1.5 -2z" />
    <glyph glyph-name="arrow-right" unicode="&#xe607;" 
d="M721 405q-4 7 -5 9q-1 0 -1.5 0.5l-0.5 0.5l-0.5 1l-0.5 1l-337 325q-14 13 -32 13v0q-20 0 -33 -14q-14 -14 -13.5 -33t14.5 -33l303 -292l-304 -289q-14 -13 -14.5 -32t12.5 -33t32 -14.5t33 12.5l340 321q11 11 13.5 26t-4.5 28l-0.5 1t-1.5 2z" />
    <glyph glyph-name="arrow-up" unicode="&#xe608;" 
d="M491 593q-7 -4 -9 -5q0 -1 -0.5 -1.5l-0.5 -0.5l-1 -0.5l-1 -0.5l-325 -337q-13 -14 -13 -32v0q0 -20 14 -33q14 -14 33 -13.5t33 14.5l292 303l289 -304q13 -14 32 -14.5t33 12.5t14.5 32t-12.5 33l-321 340q-11 11 -26 13.5t-28 -4.5l-1 -0.5t-2 -1.5z" />
    <glyph glyph-name="delete" unicode="&#xe617;" 
d="M616.5 143q-12.5 0 -21.5 9t-9 21v328q0 13 9 21.5t21.5 8.5t21 -8.5t8.5 -21.5v-328q0 -12 -8.5 -21t-21 -9zM437 143q-12 0 -21 9t-9 21v328q0 13 9 21.5t21 8.5t21 -8.5t9 -21.5v-328q0 -12 -9 -21t-21 -9zM914 650h-149v60q0 37 -26 63.5t-63 26.5h-299
q-37 0 -63 -26.5t-26 -63.5v-60h-149q-13 0 -21.5 -8.5t-8.5 -21t8.5 -21t21.5 -8.5h775q13 0 21.5 8.5t8.5 21t-8.5 21t-21.5 8.5zM348 710q0 12 8.5 21t20.5 9h299q13 0 21.5 -8.5t8.5 -21.5v-60h-358v60zM736 -36h-418q-37 0 -63.5 26.5t-26.5 63.5v448q0 12 9 20.5
t21.5 8.5t21 -8.5t8.5 -20.5v-448q0 -13 9 -21.5t21 -8.5h418q12 0 20.5 8.5t8.5 21.5v446q0 13 9 21.5t21.5 8.5t21 -8.5t8.5 -21.5v-446q0 -37 -26 -63.5t-63 -26.5z" />
    <glyph glyph-name="edit" unicode="&#xe619;" 
d="M884 625l-172 172q-9 9 -21 9v0q-13 0 -22 -9l-468 -467q-7 -7 -9 -16l-42 -213q-2 -14 8 -25q8 -8 20 -8h5l215 37q10 1 17 8l469 469q9 9 9 21.5t-9 21.5v0zM381 160l-167 -29l32 163l330 329l134 -134zM751 529l-135 135l74 74l135 -135zM840 -14h-662q-11 1 -19 9
t-8 19.5t8 20t19 8.5h662q12 0 20.5 -8.5t8.5 -20t-8.5 -20t-20.5 -8.5v0z" />
    <glyph glyph-name="share" unicode="&#xe61c;" 
d="M711 470q-62 0 -104 46l-159 -91q7 -22 7 -41q0 -33 -16 -64l152 -88q20 31 51.5 48.5t68.5 17.5q59 0 100.5 -41.5t41.5 -100.5t-41.5 -101t-100.5 -42t-100.5 42t-41.5 101q0 1 1 15l-172 99l1 1q-39 -30 -86 -30q-59 0 -100.5 42t-41.5 101t41.5 101t100.5 42
q62 0 104 -47l159 91q-7 22 -7 41q0 59 41.5 101t100.5 42t100.5 -42t41.5 -101t-41.5 -100.5t-100.5 -41.5zM711 70q35 0 60 25t25 60.5t-25 60.5t-60 25t-60 -25t-25 -60.5t25 -60.5t60 -25zM313 470q-35 0 -60 -25.5t-25 -60.5t25 -60.5t60 -25.5t60 25.5t25 60.5
t-25 60.5t-60 25.5zM711 698q-35 0 -60 -25t-25 -60.5t25 -60.5t60 -25t60 25t25 60.5t-25 60.5t-60 25z" />
    <glyph glyph-name="time" unicode="&#xe627;" 
d="M512.5 754q-100.5 0 -186 -50t-135 -135t-49.5 -185.5t49.5 -186t135 -135t186 -49.5t186 49.5t135 135t49.5 186t-49.5 185.5t-135 135t-186 50zM513 81q-125 0 -214 88.5t-89 213.5t89 213.5t214 88.5t213.5 -88.5t88.5 -213.5t-88.5 -213.5t-213.5 -88.5zM689 291
l-142 92v186q0 14 -10 24t-24 10t-24 -10t-10 -24v-223l172 -112q9 -5 19 -5q19 0 29 15q7 12 4 26t-14 21z" />
    <glyph glyph-name="danger" unicode="&#xe600;" 
d="M511.5 810q-89.5 0 -171.5 -35t-141 -94t-94 -141t-35 -172t35 -172t94 -141t141 -94t171.5 -35t171.5 35t141 94t94 141t35 172t-35 172t-94 141t-141 94t-171.5 35zM726 208q11 -11 11 -27t-11 -27.5t-27.5 -11.5t-27.5 12l-157 157l-157 -157q-12 -12 -28 -12
t-27 11.5t-11 27.5t11 27l157 157l-157 158q-11 11 -11 27t11 27.5t27 11.5t28 -12l157 -157l157 157q11 12 27.5 12t27.5 -11.5t11 -27.5t-11 -27l-157 -158z" />
    <glyph glyph-name="date" unicode="&#xe66c;" 
d="M621 678h313l-26 26v-742l26 26h-842l26 -26v742l-26 -26h304q16 0 22.5 13t0 26t-22.5 13h-304q-11 0 -18.5 -7.5t-7.5 -18.5v-742q0 -11 7.5 -18.5t18.5 -7.5h842q11 0 18.5 7.5t7.5 18.5v742q0 11 -7.5 18.5t-18.5 7.5h-313q-16 0 -22.5 -13t0 -26t22.5 -13zM385 678
h259q16 0 22.5 13t0 26t-22.5 13h-259q-16 0 -22.5 -13t0 -26t22.5 -13zM99 462h833q16 0 23 13.5t0 26.5t-23 13h-833q-16 0 -22.5 -13t0 -26.5t22.5 -13.5zM262 806v-198q0 -16 13.5 -22.5t26.5 0t13 22.5v198q0 16 -13 22.5t-26.5 0t-13.5 -22.5zM714 806v-198
q0 -16 13 -22.5t26 0t13 22.5v198q0 16 -13 22.5t-26 0t-13 -22.5zM231 273h97q12 0 17 10t0 19.5t-17 9.5h-97q-12 0 -17 -9.5t0 -19.5t17 -10zM472 273h97q12 0 17 10t0 19.5t-17 9.5h-97q-12 0 -17 -9.5t0 -19.5t17 -10zM713 273h97q12 0 17 10t0 19.5t-17 9.5h-97
q-12 0 -17 -9.5t0 -19.5t17 -10zM231 132h97q12 0 17 10t0 20t-17 10h-97q-12 0 -17 -10t0 -20t17 -10zM472 132h97q12 0 17 10t0 20t-17 10h-97q-12 0 -17 -10t0 -20t17 -10zM713 132h97q12 0 17 10t0 20t-17 10h-97q-12 0 -17 -10t0 -20t17 -10z" />
    <glyph glyph-name="logo" unicode="&#xe631;" horiz-adv-x="1100" 
d="M669 -55h-256q-24 0 -30.5 -6.5t-6.5 -29.5q0 -25 5 -31t28 -6h263q23 0 28 6t5 31q0 23 -6.5 29.5t-29.5 6.5zM540.5 699q-128.5 0 -220 -91.5t-91.5 -219.5q0 -37 10 -68.5t19.5 -48t32 -46.5t30.5 -42q18 -27 26.5 -40.5t16.5 -32.5t8 -33v-20v0q0 -24 16.5 -40.5
t39.5 -16.5h225q23 0 39.5 16.5t16.5 40.5v20q0 14 8 32.5t16.5 32l25.5 40.5q8 11 31 41.5t32.5 46.5t19.5 48.5t10 69.5q0 128 -91.5 219.5t-220 91.5zM703 219q-17 -26 -25 -40t-16 -34.5t-8 -37.5v-18v0q0 -7 -4.5 -11.5t-11.5 -4.5h-195q-7 0 -11.5 4.5t-4.5 11.5v0v18
q0 18 -7.5 38.5t-16 34.5t-25.5 40q-9 14 -26 36t-25.5 34.5t-16 36.5t-7.5 52q0 100 69.5 171.5t168 71.5t168 -71.5t69.5 -171.5q0 -29 -7.5 -53t-16 -36.5t-25.5 -35t-26 -35.5zM559 583q-88 0 -150 -61t-62 -148q0 -8 6 -13.5t14 -5.5v0q44 0 44 10q0 61 43.5 104.5
t105.5 43.5q7 0 12.5 10.5t5.5 22.5q0 16 -5.5 26.5t-13.5 10.5zM541 750v0q15 0 25.5 10.5t10.5 25.5v0v73q0 16 -10.5 26.5t-26 10.5t-26 -10.5t-10.5 -26.5v-73v0q0 -15 10.5 -25.5t26.5 -10.5v0zM211 625q11 -11 26 -11t26 11t11 26t-11 26l-52 51q-10 11 -25 11
t-26 -11t-11 -26t11 -25zM897 615l53 53q11 11 11 26.5t-10.5 26.5t-26.5 11t-27 -11l-52 -53q-11 -11 -11 -26.5t10.5 -26.5t26 -11t26.5 11v0zM1063 394h-75v0q-15 0 -26 -11t-11 -26.5t11 -26t26 -10.5v0h75q16 0 27 10.5t11 26t-11 26.5t-27 11zM150 357q0 15 -11 26
t-27 11v0h-75q-15 0 -26 -11t-11 -26.5t11 -26t26 -10.5h75v0q16 0 27 10.5t11 26.5v0zM916 99q-11 11 -26.5 11t-26.5 -11t-11 -26.5t11 -26.5l53 -53q11 -11 26.5 -11t26.5 11t11 26.5t-11 26.5zM184 99l-53 -53q-11 -11 -11 -26.5t11 -26.5t26.5 -11t26.5 11l53 53
q11 11 11 26.5t-11 26.5t-26.5 11t-26.5 -11v0z" />
  </font>
</defs>
</svg>
